<svg width="32" height="32" viewBox="0 0 32 32" fill="none" xmlns="http://www.w3.org/2000/svg">
<path d="M4.3501 16C4.3501 11.7792 6.05962 7.95685 8.82311 5.1904C14.8633 -0.855447 22.6121 -0.264088 27.9453 6.34953C25.7131 4.41875 22.8039 3.25078 19.622 3.25078C16.105 3.25078 12.9206 4.67794 10.6158 6.98486C8.31115 9.29193 6.88548 12.4795 6.88548 16C6.88548 19.5207 8.31115 22.708 10.6158 25.0151C12.9206 27.322 16.105 28.7492 19.622 28.7492C22.8039 28.7492 25.7131 27.5812 27.9453 25.6504C22.6121 32.264 14.8633 32.8554 8.82311 26.8095C6.05976 24.0432 4.3501 20.2213 4.3501 16Z" fill="#F89E26"/>
<path d="M15.9854 4.35339C20.2025 4.35339 24.0207 6.06476 26.7842 8.83084C32.8241 14.8771 32.2333 22.6336 25.6262 27.972C27.5551 25.7376 28.7219 22.8255 28.7219 19.6404C28.7219 16.1199 27.2962 12.9324 24.9915 10.6253C22.6868 8.31837 19.5025 6.89129 15.9854 6.89129C12.4681 6.89129 9.28396 8.31837 6.97917 10.6253C4.67454 12.9324 3.24879 16.1199 3.24879 19.6404C3.24879 22.8255 4.4156 25.7376 6.34448 27.972C-0.262592 22.6336 -0.853364 14.8771 5.1865 8.83084C7.94998 6.06476 11.7682 4.35339 15.9854 4.35339Z" fill="#E3569F"/>
<path d="M23.1474 5.19038C25.9109 7.95682 27.6204 11.7791 27.6204 16C27.6204 20.2213 25.9107 24.0432 23.1474 26.8095C17.1072 32.8557 9.35749 32.2639 4.02466 25.6499C6.25689 27.5808 9.16633 28.7492 12.3485 28.7492C15.8657 28.7492 19.0499 27.322 21.3547 25.0151C23.6593 22.708 25.085 19.5207 25.085 16C25.085 12.4795 23.6593 9.29191 21.3547 6.98484C19.8781 5.5068 18.0404 4.38993 15.9856 3.77812C17.1379 3.43505 18.3585 3.25076 19.622 3.25076C20.0635 3.25076 20.4999 3.27313 20.9298 3.3171C21.6884 3.84889 22.43 4.47231 23.1474 5.19038ZM11.0406 3.31725C8.37194 3.58969 5.94712 4.68703 4.02466 6.35001C7.3938 2.17152 11.7277 0.397726 15.9856 1.18179C14.3039 1.49136 12.6343 2.19995 11.0406 3.31725Z" fill="#5C823D"/>
<path d="M26.784 23.1693C24.0205 25.9354 20.2023 27.6467 15.9852 27.6467C15.3851 27.6467 14.793 27.6119 14.2111 27.5445L14.2022 27.5405L14.1482 27.5147L14.1293 27.5058L14.0855 27.4847L14.0566 27.4706L14.023 27.4542L13.9841 27.4351L13.9607 27.4234L13.9119 27.399L13.8986 27.3922L13.8401 27.3627L13.8367 27.3609L13.775 27.3292L13.7684 27.3257L13.7135 27.297L13.6969 27.2884L13.6521 27.2647L13.6259 27.2506L13.591 27.2319L13.5549 27.2124L13.5301 27.1989L13.4844 27.1738L13.4694 27.1654L13.4142 27.1348L13.4089 27.1317L13.3485 27.0977L13.344 27.0951L13.2884 27.0633L13.2742 27.0552L13.2284 27.0288L13.2047 27.015L13.1687 26.9938L13.1356 26.9742L13.1093 26.9584L13.0666 26.9329L13.0499 26.923L12.998 26.8913L12.9909 26.887L12.9319 26.8508L12.9296 26.8493L12.8732 26.8143L12.8614 26.8069L12.8149 26.7774L12.7936 26.7639L12.7566 26.7402L12.7262 26.7208L12.6987 26.7028L12.6589 26.6769L12.6409 26.665L12.592 26.6329L12.5833 26.627L12.526 26.5886L12.5255 26.5883L12.4686 26.55L12.4592 26.5435L12.4118 26.511L12.3931 26.4981L12.355 26.4717L12.3273 26.4524L12.2986 26.4321L12.2619 26.4062L12.2423 26.3923L12.1968 26.3597L12.1864 26.352L12.132 26.3129L12.1304 26.3116L12.075 26.2709L12.0674 26.2655L12.0195 26.2299L12.0033 26.2177L11.886 26.1289L11.8757 26.1211L11.8549 26.105L11.8125 26.0723L11.8005 26.0628L11.7496 26.0228L11.7462 26.0203L11.6923 25.9775L11.6869 25.9733L11.6386 25.9345L11.6246 25.9232L11.5851 25.8912L11.5625 25.8728L11.5319 25.8476L11.501 25.8218L11.4788 25.8036L11.4396 25.7707L11.4261 25.7594L11.3786 25.7191L11.3737 25.7149L11.3213 25.6703L11.3179 25.6672L11.2692 25.6252L11.2574 25.6149L11.2175 25.5799L11.1974 25.5621L11.166 25.5342L11.1377 25.509L11.1147 25.4884L11.0784 25.4557L11.0637 25.4423L11.0194 25.4019L11.0129 25.396L10.9623 25.3493L10.9606 25.3476L10.9121 25.3022L10.9023 25.2931L10.8621 25.2551L10.8443 25.2383L10.8124 25.2077L10.7867 25.1829L10.7628 25.16L10.7294 25.1275L10.7135 25.1119L10.6724 25.0715L10.6645 25.0637L10.6158 25.0151L10.5588 24.9577L10.5381 24.9366L10.5304 24.929L10.475 24.872L10.4742 24.871L10.461 24.8575L10.4461 24.8419L10.418 24.8128L10.3902 24.7835L10.3848 24.7777L10.3624 24.7541L10.3347 24.7246L10.309 24.6972L10.3072 24.6952L10.2796 24.6656L10.2522 24.6358L10.234 24.6162L10.2249 24.606L10.1977 24.5761L10.1704 24.5461L10.1598 24.5343L10.1434 24.5162L10.1165 24.4859L10.0896 24.4558L10.0861 24.4519L10.0629 24.4255L10.0362 24.395L10.0132 24.3688L10.0097 24.3646L9.98317 24.334L9.95676 24.3033L9.94109 24.2851L9.93041 24.2725L9.90436 24.2417L9.87816 24.2108L9.85217 24.1798L9.82633 24.1489L9.80041 24.1176L9.79892 24.1159L9.77478 24.0865L9.74922 24.0552L9.72893 24.0303L9.72374 24.0237L9.69818 23.9922L9.67298 23.9606L9.65966 23.9441L9.64763 23.929L9.62264 23.8973L9.59758 23.8655L9.57259 23.8335L9.54774 23.8015L9.52325 23.7699L9.52311 23.7695L9.49841 23.7374L9.47391 23.7051L9.42522 23.6405L9.40087 23.608L9.38991 23.5932L9.37688 23.5755L9.35267 23.5428L9.32889 23.5102L9.32433 23.5041L9.30504 23.4774L9.28141 23.4446L9.25955 23.4143L9.2577 23.4116L9.2342 23.3786L9.21071 23.3456L9.19554 23.3239L9.18743 23.3124L9.16422 23.2791L9.14108 23.2457L9.13211 23.2329L9.11808 23.2124L9.09509 23.1789L9.07231 23.1454L9.0696 23.1413L9.04967 23.1118L9.02717 23.0781L9.00787 23.0493L9.00453 23.0442L8.98253 23.0106C10.9917 24.3367 13.3984 25.1089 15.9852 25.1089C19.5023 25.1089 22.6866 23.6817 24.9913 21.3748C26.4679 19.8966 27.5837 18.0572 28.1948 16.0001C28.5375 17.1537 28.7217 18.3756 28.7217 19.6404C28.7217 20.0924 28.6982 20.5385 28.6524 20.9784C28.1184 21.7261 27.4949 22.4576 26.784 23.1693ZM28.6554 11.0512C28.4425 8.95949 27.7241 7.01752 26.625 5.34927C27.0866 5.654 27.527 5.98781 27.9438 6.34819C30.5211 9.54337 31.435 12.897 30.8113 16.1308C30.5152 14.4039 29.8002 12.6876 28.6554 11.0512ZM7.15831 24.8358C6.45448 24.336 5.79494 23.7784 5.18629 23.1693C-0.853921 17.1231 -0.262651 9.36571 6.34477 4.02759C4.41568 6.26211 3.24859 9.17436 3.24859 12.3597C3.24859 14.2966 3.68032 16.1325 4.45221 17.7765C4.57039 18.7984 4.78946 19.7897 5.09873 20.7398L5.09858 20.7401C5.36934 21.5719 5.70979 22.3725 6.11239 23.1351L6.11268 23.1354C6.14771 23.2016 6.18288 23.2675 6.21883 23.333L6.22445 23.343C6.39297 23.6502 6.57146 23.9511 6.75991 24.2449L6.76838 24.2583C6.89411 24.4539 7.02411 24.6465 7.15831 24.8358ZM25.6267 4.02894L25.6255 4.02759L25.6722 4.06579L25.6267 4.02894Z" fill="#01A0C0"/>
</svg>
