<svg width="102" height="32" viewBox="0 0 102 32" fill="none" xmlns="http://www.w3.org/2000/svg">
<path d="M43.1241 15.2193C43.9994 15.2193 44.8006 15.0147 45.5277 14.6053C46.2547 14.1958 46.8442 13.6239 47.296 12.8898L49.2867 14.2028C48.976 14.7112 48.6018 15.1698 48.1643 15.5793C47.7266 15.9887 47.2396 16.3381 46.7031 16.6275C46.1666 16.917 45.5948 17.1393 44.9876 17.2947C44.3806 17.4499 43.7594 17.5277 43.1241 17.5277C42.1075 17.5277 41.1511 17.3371 40.2544 16.9558C39.3581 16.5747 38.5816 16.0558 37.9251 15.3993C37.2686 14.7428 36.7497 13.9769 36.3684 13.1016C35.9873 12.2262 35.7966 11.2874 35.7966 10.285C35.7966 9.26846 35.9873 8.31896 36.3684 7.4366C36.7497 6.55418 37.2686 5.7849 37.9251 5.12837C38.5816 4.4719 39.3544 3.95305 40.244 3.57169C41.1334 3.19061 42.0863 3 43.1029 3C43.7523 3 44.3806 3.0776 44.9876 3.233C45.5948 3.38819 46.1666 3.61053 46.7031 3.9C47.2396 4.1894 47.7266 4.53883 48.1643 4.94821C48.6018 5.35767 48.976 5.81656 49.2867 6.32473L47.3172 7.63795C46.8795 6.9179 46.2865 6.34948 45.5382 5.93312C44.79 5.51663 43.9853 5.30838 43.1241 5.30838C42.4464 5.30838 41.8075 5.43547 41.2075 5.68946C40.6074 5.94365 40.0852 6.29308 39.6403 6.73775C39.1957 7.18255 38.8427 7.70837 38.5816 8.31561C38.3202 8.92258 38.1898 9.57905 38.1898 10.285C38.1898 10.9768 38.3202 11.6228 38.5816 12.2228C38.8427 12.8227 39.1957 13.3451 39.6403 13.7898C40.0852 14.2346 40.6074 14.5841 41.2075 14.8381C41.8075 15.0922 42.4464 15.2193 43.1241 15.2193ZM53.628 17.2311H51.2349V3.29651H53.628V17.2311ZM59.6211 12.3392H64.2802L61.9931 6.21904H61.9507L59.6211 12.3392ZM60.6165 3.29651H63.2848L68.7909 17.2311H66.1861L65.085 14.4358H58.8377L57.7152 17.2311H55.1105L60.6165 3.29651ZM80.0149 4.80013H75.5042V17.2311H73.9159V4.80013H69.3838V3.29651H80.0149V4.80013ZM88.2951 16.2146C88.0833 16.3559 87.8541 16.4971 87.607 16.6383C87.3599 16.7794 87.0845 16.9065 86.781 17.0193C86.4776 17.1323 86.1386 17.2276 85.7645 17.3052C85.3903 17.383 84.9704 17.4218 84.5045 17.4218C83.6855 17.4218 82.955 17.2841 82.3126 17.0089C81.6701 16.7335 81.1302 16.3629 80.6925 15.897C80.2548 15.4312 79.9196 14.884 79.6866 14.2558C79.4536 13.6275 79.3372 12.9605 79.3372 12.2545C79.3372 11.5485 79.4643 10.8815 79.7183 10.2532C79.9725 9.625 80.3255 9.07798 80.7772 8.61199C81.229 8.14613 81.7725 7.7755 82.4078 7.50012C83.0433 7.22494 83.7422 7.08717 84.5045 7.08717C85.3091 7.08717 86.0187 7.22494 86.6327 7.50012C87.2469 7.7755 87.7551 8.14613 88.1576 8.61199C88.5598 9.07798 88.8635 9.625 89.0682 10.2532C89.2729 10.8815 89.3753 11.5485 89.3753 12.2545C89.3753 12.4804 89.3541 12.7203 89.3117 12.9746H81.0736C81.229 13.864 81.6208 14.5805 82.249 15.1239C82.8774 15.6676 83.6291 15.9394 84.5045 15.9394C85.2386 15.9394 85.8387 15.837 86.3045 15.6324C86.7704 15.4276 87.1657 15.1982 87.4904 14.944L88.2951 16.2146ZM87.7022 11.5556C87.7022 10.5957 87.4092 9.858 86.8234 9.34271C86.2374 8.82735 85.4645 8.5696 84.5045 8.5696C83.5444 8.5696 82.7644 8.84854 82.1643 9.40622C81.5644 9.96369 81.1938 10.6804 81.0525 11.5556H87.7022ZM100.387 14.8804C99.9357 15.6428 99.3215 16.257 98.5451 16.723C97.7686 17.1888 96.8932 17.4218 95.9192 17.4218C95.2131 17.4218 94.546 17.2841 93.9178 17.0089C93.2895 16.7335 92.7425 16.3629 92.2766 15.897C91.8106 15.4312 91.44 14.884 91.1648 14.2558C90.8894 13.6275 90.7518 12.9605 90.7518 12.2545C90.7518 11.5485 90.8894 10.8815 91.1648 10.2532C91.44 9.625 91.8106 9.07798 92.2766 8.61199C92.7425 8.14613 93.2895 7.7755 93.9178 7.50012C94.546 7.22494 95.2131 7.08717 95.9192 7.08717C96.8932 7.08717 97.7686 7.32017 98.5451 7.78603C99.3215 8.25203 99.9357 8.86618 100.387 9.62855L99.0109 10.4333C98.7003 9.91084 98.2768 9.46959 97.7403 9.10964C97.2038 8.74975 96.5968 8.5696 95.9192 8.5696C95.425 8.5696 94.9625 8.66504 94.5319 8.85544C94.1013 9.04612 93.7236 9.30722 93.3989 9.63908C93.0742 9.97087 92.8165 10.3591 92.626 10.8039C92.4354 11.2486 92.3402 11.732 92.3402 12.2545C92.3402 12.777 92.4354 13.2604 92.626 13.7051C92.8165 14.1499 93.0742 14.5381 93.3989 14.8699C93.7236 15.2017 94.1013 15.4629 94.5319 15.6535C94.9625 15.844 95.425 15.9394 95.9192 15.9394C96.5968 15.9394 97.2038 15.7595 97.7403 15.3993C98.2768 15.0394 98.7003 14.5981 99.0109 14.0757L100.387 14.8804Z" fill="#F8F8F8"/>
<path d="M37.2612 23.8672C36.8211 23.8672 36.4671 23.7157 36.1989 23.4124C35.9308 23.1094 35.7966 22.7187 35.7966 22.2408C35.7966 21.7687 35.9301 21.3788 36.1967 21.0712C36.4634 20.7638 36.8241 20.6101 37.2788 20.6101C37.6344 20.6101 37.9214 20.7018 38.14 20.8855C38.3588 21.069 38.4899 21.3096 38.5336 21.6069H38.1489C38.1109 21.4087 38.0155 21.2498 37.8625 21.1304C37.7094 21.0108 37.5121 20.951 37.2701 20.951C36.9349 20.951 36.6726 21.0712 36.4832 21.3118C36.2937 21.5523 36.1989 21.8619 36.1989 22.2408C36.1989 22.6255 36.2973 22.9354 36.4941 23.17C36.6908 23.4046 36.951 23.5219 37.2745 23.5219C37.5542 23.5219 37.7706 23.4402 37.9237 23.277C38.0767 23.1137 38.1634 22.9082 38.1838 22.6605H38.573C38.57 22.815 38.5344 22.9731 38.4659 23.1349C38.3974 23.2966 38.3077 23.4315 38.1968 23.5393C37.9725 23.7579 37.6608 23.8672 37.2612 23.8672ZM39.9284 23.8672C39.5931 23.8672 39.3273 23.7543 39.1305 23.5285C38.9337 23.3026 38.8353 23.0191 38.8353 22.678C38.8353 22.3428 38.9351 22.0609 39.1348 21.832C39.3344 21.6032 39.5918 21.4887 39.9065 21.4887C40.2387 21.4887 40.4953 21.6047 40.6761 21.8364C40.8567 22.0682 40.9471 22.3764 40.9471 22.7611H39.1982C39.2128 23.0001 39.2835 23.1947 39.4102 23.3447C39.5372 23.4948 39.7098 23.5699 39.9284 23.5699C40.2665 23.5699 40.4749 23.4154 40.5535 23.1066H40.899C40.8465 23.3485 40.7357 23.5356 40.5666 23.6682C40.3977 23.8008 40.1849 23.8672 39.9284 23.8672ZM40.3787 21.9611C40.2651 21.8328 40.1077 21.7687 39.9065 21.7687C39.7054 21.7687 39.5459 21.8355 39.4278 21.9698C39.3097 22.1038 39.2362 22.2787 39.2069 22.4945H40.5666C40.5551 22.267 40.4924 22.0892 40.3787 21.9611ZM41.6466 21.5457V21.8429H41.6555C41.8303 21.6097 42.0692 21.4933 42.3723 21.4933C42.6115 21.4933 42.798 21.5558 42.932 21.6812C43.066 21.8065 43.1332 21.9859 43.1332 22.2191V23.806H42.7789V22.2495C42.7789 22.1038 42.7338 21.9908 42.6435 21.9108C42.553 21.8307 42.4278 21.7904 42.2674 21.7904C42.0868 21.7904 41.9382 21.8489 41.8216 21.9654C41.705 22.0821 41.6466 22.2321 41.6466 22.4157V23.806H41.2926V21.5457H41.6466ZM43.4131 21.8342V21.5457H43.7409V20.8331H44.0951V21.5457H44.5322V21.8342H44.0951V23.3032C44.0951 23.4431 44.1709 23.513 44.3224 23.513C44.3865 23.513 44.4492 23.5029 44.5105 23.4825H44.5235V23.7886C44.4273 23.809 44.3327 23.8191 44.2394 23.8191C43.907 23.8191 43.7409 23.6734 43.7409 23.382V21.8342H43.4131ZM45.2537 21.5457V21.9217H45.2626C45.3354 21.8022 45.43 21.7053 45.5466 21.6309C45.6633 21.5566 45.7929 21.5194 45.9359 21.5194C45.9884 21.5194 46.0363 21.5282 46.08 21.5457V21.8867H46.0669C46.0231 21.8722 45.9707 21.8649 45.9096 21.8649C45.7288 21.8649 45.5744 21.9282 45.4461 22.055C45.3178 22.1818 45.2537 22.3471 45.2537 22.5513V23.806H44.8997V21.5457H45.2537ZM48.0692 23.5263C47.8711 23.7536 47.6074 23.8672 47.2779 23.8672C46.9487 23.8672 46.684 23.7536 46.4845 23.5263C46.2847 23.2988 46.1849 23.0161 46.1849 22.678C46.1849 22.3398 46.2847 22.0571 46.4845 21.8298C46.684 21.6025 46.9487 21.4887 47.2779 21.4887C47.6074 21.4887 47.8711 21.6025 48.0692 21.8298C48.2676 22.0571 48.3666 22.3398 48.3666 22.678C48.3666 23.0161 48.2676 23.2988 48.0692 23.5263ZM46.738 23.3186C46.8648 23.4861 47.0447 23.5699 47.2779 23.5699C47.5111 23.5699 47.6903 23.4861 47.8158 23.3186C47.9412 23.1509 48.0037 22.9375 48.0037 22.678C48.0037 22.4157 47.9403 22.2007 47.8134 22.0331C47.6868 21.8655 47.5082 21.7817 47.2779 21.7817C47.0447 21.7817 46.8648 21.8663 46.738 22.0354C46.6111 22.2044 46.5478 22.4186 46.5478 22.678C46.5478 22.9375 46.6111 23.1509 46.738 23.3186ZM50.2901 23.8715C49.9813 23.8715 49.7372 23.7644 49.5578 23.5503C49.3786 23.336 49.289 23.0468 49.289 22.6823C49.289 22.3151 49.3822 22.025 49.5689 21.8124C49.7554 21.5996 49.993 21.4933 50.2814 21.4933C50.5875 21.4933 50.8237 21.6171 50.9897 21.8649H50.9985V20.68H51.3526V23.806H50.9985V23.5306H50.9897C50.812 23.7579 50.5788 23.8715 50.2901 23.8715ZM50.3034 23.5744C50.5453 23.5744 50.7253 23.4942 50.8433 23.3339C50.9612 23.1735 51.0203 22.9579 51.0203 22.6867C51.0203 22.4186 50.9569 22.203 50.8302 22.0397C50.7033 21.8765 50.5263 21.7948 50.299 21.7948C50.092 21.7948 49.9324 21.8772 49.8202 22.0418C49.708 22.2066 49.6519 22.4216 49.6519 22.6867C49.6519 22.952 49.708 23.1662 49.8202 23.3295C49.9324 23.4926 50.0935 23.5744 50.3034 23.5744ZM52.7996 23.8672C52.4645 23.8672 52.1986 23.7543 52.0018 23.5285C51.805 23.3026 51.7067 23.0191 51.7067 22.678C51.7067 22.3428 51.8064 22.0609 52.0062 21.832C52.2057 21.6032 52.4631 21.4887 52.7779 21.4887C53.1101 21.4887 53.3667 21.6047 53.5474 21.8364C53.7279 22.0682 53.8184 22.3764 53.8184 22.7611H52.0695C52.0842 23.0001 52.1548 23.1947 52.2816 23.3447C52.4085 23.4948 52.5811 23.5699 52.7996 23.5699C53.1378 23.5699 53.3462 23.4154 53.4249 23.1066H53.7703C53.7178 23.3485 53.607 23.5356 53.4379 23.6682C53.2691 23.8008 53.0562 23.8672 52.7996 23.8672ZM53.25 21.9611C53.1364 21.8328 52.979 21.7687 52.7779 21.7687C52.5767 21.7687 52.4172 21.8355 52.2992 21.9698C52.181 22.1038 52.1075 22.2787 52.0783 22.4945H53.4379C53.4264 22.267 53.3637 22.0892 53.25 21.9611ZM54.9201 23.806V20.68H55.3135V23.806H54.9201ZM56.2098 21.5457V21.8429H56.2187C56.3935 21.6097 56.6324 21.4933 56.9355 21.4933C57.1747 21.4933 57.3612 21.5558 57.4952 21.6812C57.6292 21.8065 57.6964 21.9859 57.6964 22.2191V23.806H57.3421V22.2495C57.3421 22.1038 57.297 21.9908 57.2068 21.9108C57.1163 21.8307 56.991 21.7904 56.8306 21.7904C56.65 21.7904 56.5014 21.8489 56.3848 21.9654C56.2681 22.0821 56.2098 22.2321 56.2098 22.4157V23.806H55.8557V21.5457H56.2098ZM59.1303 23.8672C58.8011 23.8672 58.5364 23.7536 58.3368 23.5263C58.1371 23.2988 58.0372 23.0161 58.0372 22.678C58.0372 22.3398 58.1371 22.0571 58.3368 21.8298C58.5364 21.6025 58.8011 21.4887 59.1303 21.4887C59.3956 21.4887 59.6127 21.5596 59.7818 21.701C59.9509 21.8423 60.0558 22.034 60.0966 22.2759H59.7381C59.7117 22.1213 59.6462 22.0003 59.5413 21.913C59.4363 21.8255 59.2994 21.7817 59.1303 21.7817C58.8971 21.7817 58.7171 21.8663 58.5904 22.0354C58.4635 22.2044 58.4001 22.4186 58.4001 22.678C58.4001 22.9375 58.4635 23.1509 58.5904 23.3186C58.7171 23.4861 58.8971 23.5699 59.1303 23.5699C59.3111 23.5699 59.4554 23.5211 59.563 23.4235C59.6709 23.3257 59.7321 23.1882 59.7468 23.0104H60.0966C60.0732 23.2814 59.977 23.4921 59.8079 23.6421C59.6389 23.7922 59.413 23.8672 59.1303 23.8672ZM60.4464 23.806V20.68H60.8006V23.806H60.4464ZM63.0872 23.806H62.733V23.4956H62.7243C62.5466 23.7375 62.3193 23.8585 62.0423 23.8585C61.8091 23.8585 61.624 23.7922 61.487 23.6595C61.35 23.5268 61.2814 23.344 61.2814 23.1109V21.5457H61.6356V23.1021C61.6356 23.2479 61.6802 23.3615 61.7691 23.4431C61.8579 23.5247 61.9825 23.5655 62.1429 23.5655C62.3207 23.5655 62.4634 23.5059 62.5713 23.3863C62.6792 23.2667 62.733 23.1167 62.733 22.9359V21.5457H63.0872V23.806ZM64.4251 23.8715C64.1161 23.8715 63.8765 23.8024 63.7058 23.6638C63.5354 23.5255 63.4414 23.3279 63.424 23.0715H63.7869C63.8276 23.4067 64.0432 23.5744 64.4338 23.5744C64.6116 23.5744 64.7437 23.5402 64.8296 23.4716C64.9155 23.4032 64.9585 23.3134 64.9585 23.2026C64.9585 23.0832 64.9163 22.9971 64.8317 22.9446C64.7472 22.8922 64.5928 22.8427 64.3683 22.7961C64.275 22.7758 64.2014 22.759 64.1476 22.7459C64.0935 22.7326 64.0288 22.7138 63.9529 22.689C63.8771 22.6641 63.8181 22.6366 63.776 22.6059C63.7336 22.5752 63.6906 22.5382 63.6469 22.4945C63.6031 22.4507 63.5718 22.3969 63.5528 22.3327C63.5341 22.2686 63.5245 22.1971 63.5245 22.1185C63.5245 21.926 63.5952 21.7744 63.7366 21.6638C63.8779 21.5529 64.0783 21.4976 64.3376 21.4976C64.8739 21.4976 65.1699 21.7336 65.2251 22.2058H64.8623C64.8448 22.0571 64.7939 21.9486 64.7094 21.8801C64.6249 21.8116 64.498 21.7774 64.3289 21.7774C64.1745 21.7774 64.0601 21.8072 63.9858 21.8671C63.9114 21.9269 63.8741 22.0047 63.8741 22.1009C63.8741 22.2118 63.9179 22.2898 64.0054 22.3349C64.0929 22.38 64.2517 22.4259 64.4819 22.4725C64.6219 22.5018 64.732 22.5287 64.8121 22.5534C64.8921 22.5782 64.976 22.616 65.0634 22.6671C65.1509 22.7182 65.215 22.7859 65.2558 22.8704C65.2966 22.9549 65.317 23.0599 65.317 23.1852C65.317 23.4067 65.2354 23.5766 65.0723 23.6946C64.909 23.8126 64.6933 23.8715 64.4251 23.8715ZM67.4551 23.8278C67.2306 23.8278 67.1009 23.7157 67.0659 23.4912H67.0615C66.875 23.7302 66.6244 23.8498 66.3096 23.8498C66.0851 23.8498 65.9016 23.7958 65.7587 23.688C65.6159 23.5801 65.5445 23.4242 65.5445 23.2202C65.5445 23.1153 65.5613 23.0242 65.5947 22.9468C65.6282 22.8696 65.6711 22.8071 65.7236 22.759C65.7761 22.7108 65.8484 22.6685 65.9402 22.632C66.0319 22.5956 66.1202 22.5681 66.2047 22.5491C66.2893 22.5301 66.3969 22.5105 66.5282 22.4901C66.6127 22.4784 66.6731 22.4689 66.7095 22.4616C66.746 22.4542 66.7935 22.4426 66.8517 22.4266C66.9101 22.4107 66.9509 22.3925 66.974 22.3719C66.9974 22.3515 67.0193 22.324 67.0398 22.2889C67.0601 22.2539 67.0702 22.2131 67.0702 22.1666C67.0702 22.0383 67.0259 21.9399 66.937 21.8714C66.8481 21.8029 66.7234 21.7687 66.5632 21.7687C66.1988 21.7687 66.0109 21.9348 65.9992 22.267H65.6581C65.664 22.0368 65.7434 21.8517 65.8965 21.7119C66.0495 21.5719 66.2702 21.502 66.5589 21.502C67.1156 21.502 67.3939 21.7409 67.3939 22.2191V23.2945C67.3939 23.3936 67.4105 23.4635 67.4442 23.5043C67.4777 23.5451 67.541 23.5554 67.6343 23.535H67.6474V23.793C67.5892 23.8163 67.525 23.8278 67.4551 23.8278ZM66.3883 23.5787C66.6068 23.5787 66.7759 23.5152 66.8955 23.3885C67.015 23.2618 67.0746 23.1226 67.0746 22.971V22.5863C66.9669 22.6532 66.7949 22.7086 66.5589 22.7524C66.4714 22.7698 66.4029 22.7836 66.3534 22.794C66.3037 22.8041 66.2469 22.8215 66.1827 22.8465C66.1186 22.8712 66.0705 22.8981 66.0386 22.9272C66.0065 22.9563 65.9788 22.9949 65.9554 23.043C65.9321 23.0911 65.9204 23.1474 65.9204 23.2115C65.9204 23.4562 66.0764 23.5787 66.3883 23.5787ZM66.8386 21.1785C66.7599 21.1785 66.6609 21.1552 66.5413 21.1085C66.4219 21.0619 66.3461 21.0385 66.314 21.0385C66.2528 21.0385 66.2192 21.0823 66.2134 21.1696H65.9511C65.9745 20.9015 66.0865 20.7675 66.2876 20.7675C66.3722 20.7675 66.467 20.7907 66.572 20.8374C66.6769 20.8841 66.7527 20.9072 66.7992 20.9072C66.8663 20.9072 66.9057 20.8635 66.9172 20.7762H67.1708C67.1563 21.0443 67.0455 21.1785 66.8386 21.1785ZM69.6673 23.5263C69.4691 23.7536 69.2054 23.8672 68.8759 23.8672C68.5467 23.8672 68.282 23.7536 68.0825 23.5263C67.8827 23.2988 67.783 23.0161 67.783 22.678C67.783 22.3398 67.8827 22.0571 68.0825 21.8298C68.282 21.6025 68.5467 21.4887 68.8759 21.4887C69.2054 21.4887 69.4691 21.6025 69.6673 21.8298C69.8657 22.0571 69.9646 22.3398 69.9646 22.678C69.9646 23.0161 69.8657 23.2988 69.6673 23.5263ZM68.3361 23.3186C68.4628 23.4861 68.6427 23.5699 68.8759 23.5699C69.1092 23.5699 69.2883 23.4861 69.4139 23.3186C69.5392 23.1509 69.6017 22.9375 69.6017 22.678C69.6017 22.4157 69.5384 22.2007 69.4115 22.0331C69.2848 21.8655 69.1062 21.7817 68.8759 21.7817C68.6427 21.7817 68.4628 21.8663 68.3361 22.0354C68.2092 22.2044 68.1459 22.4186 68.1459 22.678C68.1459 22.9375 68.2092 23.1509 68.3361 23.3186ZM71.98 23.8672C71.6448 23.8672 71.379 23.7543 71.1822 23.5285C70.9854 23.3026 70.887 23.0191 70.887 22.678C70.887 22.3428 70.9867 22.0609 71.1866 21.832C71.3861 21.6032 71.6434 21.4887 71.9583 21.4887C72.2904 21.4887 72.547 21.6047 72.7278 21.8364C72.9083 22.0682 72.9988 22.3764 72.9988 22.7611H71.2499C71.2645 23.0001 71.3352 23.1947 71.4619 23.3447C71.5888 23.4948 71.7615 23.5699 71.98 23.5699C72.3182 23.5699 72.5266 23.4154 72.6052 23.1066H72.9507C72.8982 23.3485 72.7874 23.5356 72.6183 23.6682C72.4494 23.8008 72.2366 23.8672 71.98 23.8672ZM72.4304 21.9611C72.3168 21.8328 72.1594 21.7687 71.9583 21.7687C71.7571 21.7687 71.5975 21.8355 71.4795 21.9698C71.3613 22.1038 71.2879 22.2787 71.2586 22.4945H72.6183C72.6068 22.267 72.544 22.0892 72.4304 21.9611ZM73.8425 23.806L74.9926 20.68H75.4341L76.5885 23.806H76.1599L75.8276 22.8529H74.5816L74.245 23.806H73.8425ZM75.0668 21.4844L74.6952 22.5338H75.7184L75.3598 21.4844L75.2198 21.0429H75.2111C75.1557 21.2177 75.1076 21.365 75.0668 21.4844ZM77.7514 23.8672C77.4221 23.8672 77.1575 23.7536 76.9579 23.5263C76.7581 23.2988 76.6583 23.0161 76.6583 22.678C76.6583 22.3398 76.7581 22.0571 76.9579 21.8298C77.1575 21.6025 77.4221 21.4887 77.7514 21.4887C78.0167 21.4887 78.2338 21.5596 78.4029 21.701C78.572 21.8423 78.6769 22.034 78.7177 22.2759H78.3591C78.3328 22.1213 78.2673 22.0003 78.1624 21.913C78.0575 21.8255 77.9205 21.7817 77.7514 21.7817C77.5182 21.7817 77.3382 21.8663 77.2115 22.0354C77.0846 22.2044 77.0212 22.4186 77.0212 22.678C77.0212 22.9375 77.0846 23.1509 77.2115 23.3186C77.3382 23.4861 77.5182 23.5699 77.7514 23.5699C77.9321 23.5699 78.0764 23.5211 78.1841 23.4235C78.2921 23.3257 78.3532 23.1882 78.3678 23.0104H78.7177C78.6943 23.2814 78.5981 23.4921 78.429 23.6421C78.26 23.7922 78.0341 23.8672 77.7514 23.8672ZM80.0206 23.8672C79.6854 23.8672 79.4195 23.7543 79.2227 23.5285C79.0259 23.3026 78.9275 23.0191 78.9275 22.678C78.9275 22.3428 79.0273 22.0609 79.227 21.832C79.4267 21.6032 79.684 21.4887 79.9988 21.4887C80.331 21.4887 80.5875 21.6047 80.7683 21.8364C80.9489 22.0682 81.0393 22.3764 81.0393 22.7611H79.2904C79.3051 23.0001 79.3758 23.1947 79.5024 23.3447C79.6293 23.4948 79.802 23.5699 80.0206 23.5699C80.3587 23.5699 80.5672 23.4154 80.6457 23.1066H80.9912C80.9388 23.3485 80.8279 23.5356 80.6588 23.6682C80.4899 23.8008 80.2771 23.8672 80.0206 23.8672ZM80.471 21.9611C80.3573 21.8328 80.1999 21.7687 79.9988 21.7687C79.7976 21.7687 79.638 21.8355 79.5201 21.9698C79.4019 22.1038 79.3284 22.2787 79.2991 22.4945H80.6588C80.6474 22.267 80.5846 22.0892 80.471 21.9611ZM82.2416 23.8715C81.9326 23.8715 81.6931 23.8024 81.5224 23.6638C81.3519 23.5255 81.2579 23.3279 81.2404 23.0715H81.6033C81.6441 23.4067 81.8598 23.5744 82.2503 23.5744C82.4281 23.5744 82.5601 23.5402 82.6461 23.4716C82.732 23.4032 82.7749 23.3134 82.7749 23.2026C82.7749 23.0832 82.7328 22.9971 82.6483 22.9446C82.5637 22.8922 82.4093 22.8427 82.1848 22.7961C82.0916 22.7758 82.0179 22.759 81.9641 22.7459C81.91 22.7326 81.8453 22.7138 81.7695 22.689C81.6936 22.6641 81.6346 22.6366 81.5925 22.6059C81.5501 22.5752 81.5071 22.5382 81.4634 22.4945C81.4196 22.4507 81.3884 22.3969 81.3694 22.3327C81.3505 22.2686 81.341 22.1971 81.341 22.1185C81.341 21.926 81.4117 21.7744 81.5531 21.6638C81.6945 21.5529 81.8948 21.4976 82.1541 21.4976C82.6904 21.4976 82.9864 21.7336 83.0416 22.2058H82.6787C82.6613 22.0571 82.6105 21.9486 82.5259 21.8801C82.4414 21.8116 82.3145 21.7774 82.1454 21.7774C81.991 21.7774 81.8766 21.8072 81.8023 21.8671C81.7278 21.9269 81.6907 22.0047 81.6907 22.1009C81.6907 22.2118 81.7344 22.2898 81.8219 22.3349C81.9094 22.38 82.0682 22.4259 82.2984 22.4725C82.4384 22.5018 82.5485 22.5287 82.6287 22.5534C82.7086 22.5782 82.7926 22.616 82.8799 22.6671C82.9674 22.7182 83.0315 22.7859 83.0723 22.8704C83.1131 22.9549 83.1335 23.0599 83.1335 23.1852C83.1335 23.4067 83.0519 23.5766 82.8888 23.6946C82.7254 23.8126 82.5099 23.8715 82.2416 23.8715ZM84.3314 23.8715C84.0224 23.8715 83.7829 23.8024 83.6122 23.6638C83.4417 23.5255 83.3477 23.3279 83.3303 23.0715H83.6931C83.7339 23.4067 83.9496 23.5744 84.3401 23.5744C84.5179 23.5744 84.65 23.5402 84.7359 23.4716C84.8218 23.4032 84.8648 23.3134 84.8648 23.2026C84.8648 23.0832 84.8226 22.9971 84.7381 22.9446C84.6536 22.8922 84.4992 22.8427 84.2746 22.7961C84.1814 22.7758 84.1078 22.759 84.0539 22.7459C83.9998 22.7326 83.9351 22.7138 83.8593 22.689C83.7834 22.6641 83.7244 22.6366 83.6823 22.6059C83.6399 22.5752 83.5969 22.5382 83.5532 22.4945C83.5094 22.4507 83.4782 22.3969 83.4592 22.3327C83.4403 22.2686 83.4309 22.1971 83.4309 22.1185C83.4309 21.926 83.5016 21.7744 83.6429 21.6638C83.7843 21.5529 83.9846 21.4976 84.2439 21.4976C84.7803 21.4976 85.0762 21.7336 85.1314 22.2058H84.7685C84.7511 22.0571 84.7003 21.9486 84.6157 21.8801C84.5312 21.8116 84.4043 21.7774 84.2352 21.7774C84.0808 21.7774 83.9664 21.8072 83.8921 21.8671C83.8177 21.9269 83.7805 22.0047 83.7805 22.1009C83.7805 22.2118 83.8242 22.2898 83.9117 22.3349C83.9993 22.38 84.158 22.4259 84.3882 22.4725C84.5282 22.5018 84.6383 22.5287 84.7185 22.5534C84.7985 22.5782 84.8824 22.616 84.9697 22.6671C85.0573 22.7182 85.1214 22.7859 85.1622 22.8704C85.2029 22.9549 85.2233 23.0599 85.2233 23.1852C85.2233 23.4067 85.1417 23.5766 84.9786 23.6946C84.8153 23.8126 84.5997 23.8715 84.3314 23.8715ZM85.5645 23.806V21.5457H85.9184V23.806H85.5645ZM85.5645 21.1171V20.68H85.9184V21.1171H85.5645ZM87.4749 23.8715C87.1747 23.8715 86.9372 23.7506 86.7624 23.5087H86.7534V23.806H86.3995V20.68H86.7534V21.8692H86.7624C86.9459 21.6186 87.1878 21.4933 87.4881 21.4933C87.7795 21.4933 88.0128 21.5988 88.1876 21.8102C88.3624 22.0215 88.4499 22.3123 88.4499 22.6823C88.4499 23.0468 88.3632 23.336 88.1898 23.5503C88.0163 23.7644 87.778 23.8715 87.4749 23.8715ZM87.4487 23.5744C87.6586 23.5744 87.8174 23.4935 87.9253 23.3317C88.0332 23.17 88.087 22.9549 88.087 22.6867C88.087 22.4216 88.0332 22.2066 87.9253 22.0418C87.8174 21.8772 87.66 21.7948 87.4531 21.7948C87.2169 21.7948 87.0377 21.8788 86.9154 22.0462C86.7929 22.2139 86.7317 22.4273 86.7317 22.6867C86.7317 22.952 86.7929 23.1662 86.9154 23.3295C87.0377 23.4926 87.2155 23.5744 87.4487 23.5744ZM88.8041 23.806V21.5457H89.1581V23.806H88.8041ZM88.8041 21.1171V20.68H89.1581V21.1171H88.8041ZM89.6522 23.806V20.68H90.0064V23.806H89.6522ZM90.5005 23.806V21.5457H90.8545V23.806H90.5005ZM90.5005 21.1171V20.68H90.8545V21.1171H90.5005ZM92.2098 23.8715C91.901 23.8715 91.6569 23.7644 91.4776 23.5503C91.2984 23.336 91.2087 23.0468 91.2087 22.6823C91.2087 22.3151 91.3019 22.025 91.4886 21.8124C91.6751 21.5996 91.9127 21.4933 92.2012 21.4933C92.5072 21.4933 92.7434 21.6171 92.9095 21.8649H92.9182V20.68H93.2724V23.806H92.9182V23.5306H92.9095C92.7317 23.7579 92.4985 23.8715 92.2098 23.8715ZM92.2231 23.5744C92.465 23.5744 92.645 23.4942 92.763 23.3339C92.881 23.1735 92.94 22.9579 92.94 22.6867C92.94 22.4186 92.8766 22.203 92.7499 22.0397C92.623 21.8765 92.446 21.7948 92.2187 21.7948C92.0117 21.7948 91.8521 21.8772 91.7398 22.0418C91.6278 22.2066 91.5716 22.4216 91.5716 22.6867C91.5716 22.952 91.6278 23.1662 91.7398 23.3295C91.8521 23.4926 92.0133 23.5744 92.2231 23.5744ZM95.5283 23.8278C95.3038 23.8278 95.1741 23.7157 95.1391 23.4912H95.1347C94.9482 23.7302 94.6976 23.8498 94.3828 23.8498C94.1583 23.8498 93.9748 23.7958 93.8319 23.688C93.6891 23.5801 93.6176 23.4242 93.6176 23.2202C93.6176 23.1153 93.6344 23.0242 93.6679 22.9468C93.7014 22.8696 93.7443 22.8071 93.7968 22.759C93.8492 22.7108 93.9215 22.6685 94.0134 22.632C94.105 22.5956 94.1934 22.5681 94.2779 22.5491C94.3624 22.5301 94.4701 22.5105 94.6014 22.4901C94.6859 22.4784 94.7463 22.4689 94.7827 22.4616C94.8192 22.4542 94.8666 22.4426 94.9249 22.4266C94.9833 22.4107 95.0241 22.3925 95.0472 22.3719C95.0706 22.3515 95.0925 22.324 95.113 22.2889C95.1333 22.2539 95.1434 22.2131 95.1434 22.1666C95.1434 22.0383 95.0991 21.9399 95.0102 21.8714C94.9213 21.8029 94.7966 21.7687 94.6364 21.7687C94.2719 21.7687 94.0841 21.9348 94.0724 22.267H93.7313C93.7372 22.0368 93.8166 21.8517 93.9696 21.7119C94.1227 21.5719 94.3434 21.502 94.632 21.502C95.1887 21.502 95.4671 21.7409 95.4671 22.2191V23.2945C95.4671 23.3936 95.4837 23.4635 95.5174 23.5043C95.5509 23.5451 95.6142 23.5554 95.7074 23.535H95.7206V23.793C95.6623 23.8163 95.5982 23.8278 95.5283 23.8278ZM94.4614 23.5787C94.68 23.5787 94.8491 23.5152 94.9686 23.3885C95.0882 23.2618 95.1478 23.1226 95.1478 22.971V22.5863C95.0401 22.6532 94.868 22.7086 94.632 22.7524C94.5445 22.7698 94.4761 22.7836 94.4266 22.794C94.3769 22.8041 94.3201 22.8215 94.2559 22.8465C94.1918 22.8712 94.1437 22.8981 94.1118 22.9272C94.0797 22.9563 94.052 22.9949 94.0286 23.043C94.0053 23.0911 93.9936 23.1474 93.9936 23.2115C93.9936 23.4562 94.1496 23.5787 94.4614 23.5787ZM96.8573 23.8715C96.5485 23.8715 96.3044 23.7644 96.125 23.5503C95.9458 23.336 95.8562 23.0468 95.8562 22.6823C95.8562 22.3151 95.9494 22.025 96.1361 21.8124C96.3226 21.5996 96.5601 21.4933 96.8486 21.4933C97.1547 21.4933 97.3909 21.6171 97.5569 21.8649H97.5656V20.68H97.9198V23.806H97.5656V23.5306H97.5569C97.3791 23.7579 97.1459 23.8715 96.8573 23.8715ZM96.8706 23.5744C97.1125 23.5744 97.2924 23.4942 97.4105 23.3339C97.5284 23.1735 97.5874 22.9579 97.5874 22.6867C97.5874 22.4186 97.5241 22.203 97.3974 22.0397C97.2705 21.8765 97.0935 21.7948 96.8662 21.7948C96.6591 21.7948 96.4996 21.8772 96.3873 22.0418C96.2752 22.2066 96.219 22.4216 96.219 22.6867C96.219 22.952 96.2752 23.1662 96.3873 23.3295C96.4996 23.4926 96.6607 23.5744 96.8706 23.5744ZM99.3668 23.8672C99.0316 23.8672 98.7658 23.7543 98.569 23.5285C98.3722 23.3026 98.2738 23.0191 98.2738 22.678C98.2738 22.3428 98.3736 22.0609 98.5734 21.832C98.7729 21.6032 99.0303 21.4887 99.3451 21.4887C99.6772 21.4887 99.9339 21.6047 100.115 21.8364C100.295 22.0682 100.386 22.3764 100.386 22.7611H98.6367C98.6513 23.0001 98.722 23.1947 98.8488 23.3447C98.9756 23.4948 99.1483 23.5699 99.3668 23.5699C99.705 23.5699 99.9134 23.4154 99.992 23.1066H100.338C100.285 23.3485 100.174 23.5356 100.005 23.6682C99.8362 23.8008 99.6234 23.8672 99.3668 23.8672ZM99.8172 21.9611C99.7036 21.8328 99.5462 21.7687 99.3451 21.7687C99.1439 21.7687 98.9844 21.8355 98.8663 21.9698C98.7481 22.1038 98.6747 22.2787 98.6454 22.4945H100.005C99.9936 22.267 99.9309 22.0892 99.8172 21.9611ZM35.8623 29.5334V26.5474H36.2163V26.8665H36.2252C36.4088 26.6187 36.6507 26.4949 36.951 26.4949C37.2424 26.4949 37.477 26.6005 37.6548 26.8118C37.8325 27.0231 37.9214 27.314 37.9214 27.684C37.9214 28.0484 37.8342 28.3376 37.6592 28.5519C37.4843 28.7661 37.2438 28.8732 36.9377 28.8732C36.6346 28.8732 36.397 28.7625 36.2252 28.541H36.2163V29.5334H35.8623ZM36.9116 28.576C37.1214 28.576 37.2818 28.4943 37.3925 28.3311C37.5031 28.1678 37.5586 27.9536 37.5586 27.6883C37.5586 27.4232 37.5031 27.2082 37.3925 27.0435C37.2818 26.8788 37.1228 26.7964 36.916 26.7964C36.6798 26.7964 36.5006 26.8804 36.3782 27.0478C36.2557 27.2155 36.1945 27.429 36.1945 27.6883C36.1945 27.9536 36.2527 28.1678 36.3694 28.3311C36.4859 28.4943 36.6667 28.576 36.9116 28.576ZM40.0331 28.5279C39.8349 28.7552 39.5712 28.8688 39.2418 28.8688C38.9126 28.8688 38.6478 28.7552 38.4483 28.5279C38.2485 28.3005 38.1487 28.0178 38.1487 27.6796C38.1487 27.3414 38.2485 27.0587 38.4483 26.8315C38.6478 26.6042 38.9126 26.4904 39.2418 26.4904C39.5712 26.4904 39.8349 26.6042 40.0331 26.8315C40.2314 27.0587 40.3304 27.3414 40.3304 27.6796C40.3304 28.0178 40.2314 28.3005 40.0331 28.5279ZM38.7019 28.3203C38.8286 28.4877 39.0086 28.5715 39.2418 28.5715C39.475 28.5715 39.6542 28.4877 39.7796 28.3203C39.905 28.1525 39.9675 27.9391 39.9675 27.6796C39.9675 27.4173 39.9042 27.2023 39.7773 27.0348C39.6506 26.8671 39.472 26.7833 39.2418 26.7833C39.0086 26.7833 38.8286 26.8679 38.7019 27.037C38.575 27.206 38.5116 27.4203 38.5116 27.6796C38.5116 27.9391 38.575 28.1525 38.7019 28.3203ZM41.0386 26.5474V26.9233H41.0475C41.1203 26.8038 41.2149 26.7069 41.3316 26.6325C41.4482 26.5583 41.5778 26.521 41.7208 26.521C41.7732 26.521 41.8211 26.5298 41.8649 26.5474V26.8883H41.8519C41.8081 26.8738 41.7556 26.8665 41.6945 26.8665C41.5137 26.8665 41.3593 26.9299 41.231 27.0566C41.1027 27.1834 41.0386 27.3487 41.0386 27.5529V28.8077H40.6846V26.5474H41.0386ZM42.8793 28.8077V26.5474H43.2333V26.8709H43.2422C43.3151 26.7573 43.4097 26.6661 43.5263 26.5977C43.643 26.5291 43.7696 26.4949 43.9066 26.4949C44.2011 26.4949 44.3978 26.629 44.497 26.897H44.5057C44.5756 26.7717 44.6732 26.6733 44.7985 26.602C44.924 26.5305 45.0565 26.4949 45.1964 26.4949C45.4033 26.4949 45.5696 26.5583 45.6949 26.685C45.8203 26.8118 45.8828 26.9903 45.8828 27.2207V28.8077H45.5288V27.2381C45.5288 27.1011 45.4886 26.9924 45.4084 26.9124C45.3283 26.8323 45.2299 26.792 45.1135 26.792C44.9648 26.792 44.8351 26.8505 44.7243 26.9671C44.6136 27.0837 44.5582 27.2278 44.5582 27.3998V28.8077H44.204V27.2381C44.204 27.1011 44.1684 26.9924 44.0969 26.9124C44.0254 26.8323 43.9316 26.792 43.815 26.792C43.669 26.792 43.5358 26.8511 43.4148 26.9693C43.2939 27.0872 43.2333 27.2308 43.2333 27.3998V28.8077H42.8793ZM47.3169 28.8688C46.9818 28.8688 46.7159 28.756 46.5191 28.5301C46.3223 28.3042 46.2239 28.0207 46.2239 27.6796C46.2239 27.3444 46.3237 27.0625 46.5234 26.8337C46.723 26.6048 46.9804 26.4904 47.2952 26.4904C47.6274 26.4904 47.8839 26.6064 48.0647 26.838C48.2452 27.0698 48.3357 27.3781 48.3357 27.7627H46.5868C46.6015 28.0017 46.6722 28.1963 46.7988 28.3463C46.9257 28.4965 47.0984 28.5715 47.3169 28.5715C47.6551 28.5715 47.8636 28.417 47.9421 28.1082H48.2876C48.2352 28.3501 48.1243 28.5372 47.9552 28.6698C47.7863 28.8025 47.5735 28.8688 47.3169 28.8688ZM47.7674 26.9627C47.6537 26.8344 47.4963 26.7703 47.2952 26.7703C47.094 26.7703 46.9344 26.8372 46.8165 26.9714C46.6983 27.1055 46.6248 27.2803 46.5955 27.4961H47.9552C47.9437 27.2686 47.881 27.0908 47.7674 26.9627ZM48.6812 28.8077V26.5474H49.0352V28.8077H48.6812ZM48.6812 26.1188V25.6816H49.0352V26.1188H48.6812ZM51.2736 28.5279C51.0755 28.7552 50.8118 28.8688 50.4823 28.8688C50.1531 28.8688 49.8884 28.7552 49.6889 28.5279C49.4891 28.3005 49.3894 28.0178 49.3894 27.6796C49.3894 27.3414 49.4891 27.0587 49.6889 26.8315C49.8884 26.6042 50.1531 26.4904 50.4823 26.4904C50.8118 26.4904 51.0755 26.6042 51.2736 26.8315C51.4721 27.0587 51.571 27.3414 51.571 27.6796C51.571 28.0178 51.4721 28.3005 51.2736 28.5279ZM49.9425 28.3203C50.0692 28.4877 50.2491 28.5715 50.4823 28.5715C50.7155 28.5715 50.8947 28.4877 51.0203 28.3203C51.1456 28.1525 51.2081 27.9391 51.2081 27.6796C51.2081 27.4173 51.1448 27.2023 51.0178 27.0348C50.8912 26.8671 50.7126 26.7833 50.4823 26.7833C50.2491 26.7833 50.0692 26.8679 49.9425 27.037C49.8155 27.206 49.7522 27.4203 49.7522 27.6796C49.7522 27.9391 49.8155 28.1525 49.9425 28.3203Z" fill="#F8F8F8"/>
<path d="M53.4944 28.8732C53.1856 28.8732 52.9415 28.766 52.7621 28.5518C52.583 28.3376 52.4933 28.0484 52.4933 27.6839C52.4933 27.3166 52.5866 27.0266 52.7732 26.814C52.9597 26.6012 53.1973 26.4948 53.4857 26.4948C53.7918 26.4948 54.028 26.6186 54.1941 26.8664H54.2028V25.6816H54.557V28.8076H54.2028V28.5322H54.1941C54.0163 28.7595 53.7831 28.8732 53.4944 28.8732ZM53.5077 28.5759C53.7497 28.5759 53.9296 28.4958 54.0476 28.3354C54.1656 28.1751 54.2246 27.9595 54.2246 27.6882C54.2246 27.4202 54.1612 27.2046 54.0345 27.0413C53.9077 26.8782 53.7306 26.7964 53.5034 26.7964C53.2963 26.7964 53.1367 26.8787 53.0245 27.0435C52.9124 27.2081 52.8562 27.4231 52.8562 27.6882C52.8562 27.9536 52.9124 28.1677 53.0245 28.3311C53.1367 28.4942 53.2978 28.5759 53.5077 28.5759ZM56.8129 28.8294C56.5884 28.8294 56.4587 28.7173 56.4237 28.4928H56.4193C56.2328 28.7318 55.9822 28.8513 55.6674 28.8513C55.4429 28.8513 55.2594 28.7973 55.1164 28.6896C54.9737 28.5817 54.9023 28.4257 54.9023 28.2218C54.9023 28.1168 54.9191 28.0258 54.9525 27.9484C54.986 27.8712 55.0289 27.8086 55.0814 27.7605C55.1339 27.7124 55.2062 27.67 55.298 27.6336C55.3897 27.5972 55.4779 27.5696 55.5625 27.5507C55.6471 27.5316 55.7547 27.512 55.886 27.4917C55.9705 27.48 56.0309 27.4705 56.0673 27.4632C56.1038 27.4558 56.1513 27.4441 56.2095 27.4281C56.2679 27.4123 56.3087 27.3941 56.3318 27.3734C56.3552 27.3531 56.3772 27.3255 56.3976 27.2905C56.4179 27.2555 56.4281 27.2147 56.4281 27.1682C56.4281 27.0399 56.3837 26.9415 56.2948 26.873C56.2059 26.8045 56.0812 26.7702 55.9211 26.7702C55.5566 26.7702 55.3687 26.9364 55.357 27.2685H55.0159C55.0218 27.0383 55.1012 26.8532 55.2543 26.7134C55.4073 26.5734 55.628 26.5036 55.9167 26.5036C56.4734 26.5036 56.7518 26.7426 56.7518 27.2206V28.296C56.7518 28.3952 56.7683 28.4651 56.802 28.5059C56.8355 28.5467 56.8988 28.557 56.9921 28.5366H57.0051V28.7945C56.947 28.8179 56.8828 28.8294 56.8129 28.8294ZM55.746 28.5803C55.9646 28.5803 56.1336 28.5168 56.2532 28.3901C56.3728 28.2634 56.4324 28.1242 56.4324 27.9725V27.5879C56.3247 27.6548 56.1527 27.7102 55.9167 27.754C55.8292 27.7714 55.7606 27.7853 55.7112 27.7956C55.6615 27.8056 55.6047 27.8231 55.5405 27.848C55.4764 27.8728 55.4283 27.8997 55.3964 27.9288C55.3644 27.9579 55.3366 27.9965 55.3133 28.0446C55.2899 28.0927 55.2782 28.1489 55.2782 28.2131C55.2782 28.4578 55.4342 28.5803 55.746 28.5803ZM57.8184 26.027V25.6816H60.2929V26.027H59.2523V28.8076H58.859V26.027H57.8184ZM61.1149 28.8688C60.7797 28.8688 60.5138 28.756 60.3171 28.5301C60.1203 28.3042 60.0219 28.0206 60.0219 27.6795C60.0219 27.3444 60.1217 27.0624 60.3214 26.8336C60.5209 26.6047 60.7783 26.4903 61.0931 26.4903C61.4253 26.4903 61.6819 26.6063 61.8626 26.8379C62.0432 27.0697 62.1337 27.378 62.1337 27.7627H60.3848C60.3994 28.0017 60.4701 28.1963 60.5968 28.3463C60.7237 28.4964 60.8963 28.5714 61.1149 28.5714C61.453 28.5714 61.6615 28.417 61.7401 28.1081H62.0856C62.0331 28.3501 61.9222 28.5372 61.7532 28.6698C61.5843 28.8025 61.3714 28.8688 61.1149 28.8688ZM61.5653 26.9627C61.4516 26.8344 61.2943 26.7702 61.0931 26.7702C60.892 26.7702 60.7324 26.8372 60.6144 26.9714C60.4962 27.1054 60.4228 27.2802 60.3935 27.496H61.7532C61.7416 27.2685 61.6789 27.0907 61.5653 26.9627ZM63.4452 28.8688C63.116 28.8688 62.8514 28.7551 62.6517 28.5278C62.452 28.3004 62.3522 28.0177 62.3522 27.6795C62.3522 27.3414 62.452 27.0587 62.6517 26.8314C62.8514 26.6042 63.116 26.4903 63.4452 26.4903C63.7106 26.4903 63.9277 26.5612 64.0968 26.7025C64.2659 26.8439 64.3708 27.0355 64.4116 27.2774H64.053C64.0267 27.1228 63.9612 27.0018 63.8563 26.9146C63.7514 26.8271 63.6144 26.7833 63.4452 26.7833C63.212 26.7833 63.0321 26.8678 62.9054 27.0369C62.7785 27.206 62.7151 27.4202 62.7151 27.6795C62.7151 27.9391 62.7785 28.1525 62.9054 28.3202C63.0321 28.4877 63.212 28.5714 63.4452 28.5714C63.626 28.5714 63.7703 28.5227 63.878 28.4251C63.9859 28.3273 64.0471 28.1897 64.0617 28.0119H64.4116C64.3882 28.283 64.292 28.4936 64.123 28.6436C63.9538 28.7937 63.7279 28.8688 63.4452 28.8688ZM65.1023 26.5473V26.8445H65.1112C65.286 26.6113 65.525 26.4948 65.8281 26.4948C66.0673 26.4948 66.2537 26.5574 66.3878 26.6827C66.5218 26.808 66.5889 26.9874 66.5889 27.2206V28.8076H66.2347V27.2512C66.2347 27.1054 66.1895 26.9924 66.0993 26.9124C66.0088 26.8322 65.8835 26.792 65.7231 26.792C65.5426 26.792 65.3939 26.8504 65.2773 26.9671C65.1607 27.0836 65.1023 27.2337 65.1023 27.4172V28.8076H64.7483V26.5473H65.1023ZM68.8141 28.5278C68.616 28.7551 68.3523 28.8688 68.0228 28.8688C67.6936 28.8688 67.4289 28.7551 67.2293 28.5278C67.0296 28.3004 66.9298 28.0177 66.9298 27.6795C66.9298 27.3414 67.0296 27.0587 67.2293 26.8314C67.4289 26.6042 67.6936 26.4903 68.0228 26.4903C68.3523 26.4903 68.616 26.6042 68.8141 26.8314C69.0125 27.0587 69.1114 27.3414 69.1114 27.6795C69.1114 28.0177 69.0125 28.3004 68.8141 28.5278ZM67.483 28.3202C67.6096 28.4877 67.7896 28.5714 68.0228 28.5714C68.256 28.5714 68.4352 28.4877 68.5607 28.3202C68.686 28.1525 68.7486 27.9391 68.7486 27.6795C68.7486 27.4172 68.6853 27.2022 68.5584 27.0347C68.4316 26.8671 68.2531 26.7833 68.0228 26.7833C67.7896 26.7833 67.6096 26.8678 67.483 27.0369C67.356 27.206 67.2927 27.4202 67.2927 27.6795C67.2927 27.9391 67.356 28.1525 67.483 28.3202ZM69.4787 28.8076V25.6816H69.8329V28.8076H69.4787ZM72.0845 28.5278C71.8863 28.7551 71.6226 28.8688 71.2931 28.8688C70.9639 28.8688 70.6992 28.7551 70.4997 28.5278C70.2999 28.3004 70.2002 28.0177 70.2002 27.6795C70.2002 27.3414 70.2999 27.0587 70.4997 26.8314C70.6992 26.6042 70.9639 26.4903 71.2931 26.4903C71.6226 26.4903 71.8863 26.6042 72.0845 26.8314C72.2828 27.0587 72.3818 27.3414 72.3818 27.6795C72.3818 28.0177 72.2828 28.3004 72.0845 28.5278ZM70.7533 28.3202C70.88 28.4877 71.0599 28.5714 71.2931 28.5714C71.5264 28.5714 71.7055 28.4877 71.831 28.3202C71.9564 28.1525 72.0189 27.9391 72.0189 27.6795C72.0189 27.4172 71.9556 27.2022 71.8287 27.0347C71.702 26.8671 71.5234 26.7833 71.2931 26.7833C71.0599 26.7833 70.88 26.8678 70.7533 27.0369C70.6264 27.206 70.5631 27.4202 70.5631 27.6795C70.5631 27.9391 70.6264 28.1525 70.7533 28.3202ZM73.6366 29.5595C73.348 29.5595 73.1214 29.5049 72.9568 29.3956C72.792 29.2863 72.6996 29.1326 72.6791 28.9343H73.007C73.0391 29.1647 73.246 29.2797 73.6279 29.2797C74.0594 29.2797 74.2751 29.0859 74.2751 28.6983V28.3792H74.2664C74.1761 28.4958 74.0799 28.5831 73.9777 28.6415C73.8755 28.6997 73.7488 28.7288 73.5972 28.7288C73.3058 28.7288 73.0682 28.6239 72.8845 28.4141C72.701 28.2042 72.6091 27.9361 72.6091 27.6096C72.6091 27.2685 72.7017 26.9975 72.8868 26.7964C73.0717 26.5952 73.3014 26.4948 73.5754 26.4948C73.8726 26.4948 74.1032 26.6085 74.2664 26.8358H74.2751V26.5473H74.6292V28.6853C74.6292 28.9737 74.5411 29.1917 74.3647 29.3387C74.1883 29.486 73.9457 29.5595 73.6366 29.5595ZM73.6148 28.4316C74.0725 28.4316 74.3014 28.1517 74.3014 27.5922C74.3014 27.0587 74.0711 26.792 73.6102 26.792C73.4034 26.792 73.2452 26.8664 73.1359 27.0152C73.0266 27.1636 72.972 27.3634 72.972 27.614C72.972 27.8647 73.0274 28.0636 73.1381 28.2109C73.249 28.358 73.4077 28.4316 73.6148 28.4316ZM75.1103 28.8076V26.5473H75.4643V28.8076H75.1103ZM75.1103 26.1187V25.6816H75.4643V26.1187H75.1103ZM77.7204 28.8294C77.4959 28.8294 77.3662 28.7173 77.3312 28.4928H77.3269C77.1404 28.7318 76.8897 28.8513 76.5749 28.8513C76.3505 28.8513 76.1669 28.7973 76.024 28.6896C75.8812 28.5817 75.8097 28.4257 75.8097 28.2218C75.8097 28.1168 75.8266 28.0258 75.8601 27.9484C75.8935 27.8712 75.9365 27.8086 75.9889 27.7605C76.0414 27.7124 76.1136 27.67 76.2055 27.6336C76.2972 27.5972 76.3855 27.5696 76.47 27.5507C76.5545 27.5316 76.6622 27.512 76.7935 27.4917C76.878 27.48 76.9384 27.4705 76.9748 27.4632C77.0112 27.4558 77.0588 27.4441 77.117 27.4281C77.1754 27.4123 77.2161 27.3941 77.2393 27.3734C77.2627 27.3531 77.2847 27.3255 77.305 27.2905C77.3255 27.2555 77.3355 27.2147 77.3355 27.1682C77.3355 27.0399 77.2912 26.9415 77.2023 26.873C77.1134 26.8045 76.9887 26.7702 76.8285 26.7702C76.464 26.7702 76.2762 26.9364 76.2645 27.2685H75.9234C75.9294 27.0383 76.0087 26.8532 76.1617 26.7134C76.3148 26.5734 76.5356 26.5036 76.8242 26.5036C77.3809 26.5036 77.6592 26.7426 77.6592 27.2206V28.296C77.6592 28.3952 77.6759 28.4651 77.7095 28.5059C77.7429 28.5467 77.8063 28.557 77.8996 28.5366H77.9126V28.7945C77.8544 28.8179 77.7903 28.8294 77.7204 28.8294ZM76.6535 28.5803C76.8721 28.5803 77.0412 28.5168 77.1607 28.3901C77.2803 28.2634 77.3399 28.1242 77.3399 27.9725V27.5879C77.2322 27.6548 77.0602 27.7102 76.8242 27.754C76.7367 27.7714 76.6682 27.7853 76.6187 27.7956C76.5689 27.8056 76.5121 27.8231 76.448 27.848C76.3838 27.8728 76.3357 27.8997 76.3039 27.9288C76.2718 27.9579 76.2441 27.9965 76.2208 28.0446C76.1974 28.0927 76.1857 28.1489 76.1857 28.2131C76.1857 28.4578 76.3417 28.5803 76.6535 28.5803Z" fill="#F8F8F8"/>
<path d="M4.3501 16C4.3501 11.7792 6.05962 7.95685 8.82311 5.1904C14.8633 -0.855447 22.6121 -0.264088 27.9453 6.34953C25.7131 4.41875 22.8039 3.25078 19.622 3.25078C16.105 3.25078 12.9206 4.67794 10.6158 6.98486C8.31115 9.29193 6.88548 12.4795 6.88548 16C6.88548 19.5207 8.31115 22.708 10.6158 25.0151C12.9206 27.322 16.105 28.7492 19.622 28.7492C22.8039 28.7492 25.7131 27.5812 27.9453 25.6504C22.6121 32.264 14.8633 32.8554 8.82311 26.8095C6.05976 24.0432 4.3501 20.2213 4.3501 16Z" fill="#F89E26"/>
<path d="M15.9854 4.35339C20.2025 4.35339 24.0207 6.06476 26.7842 8.83084C32.8241 14.8771 32.2333 22.6336 25.6262 27.972C27.5551 25.7376 28.7219 22.8255 28.7219 19.6404C28.7219 16.1199 27.2962 12.9324 24.9915 10.6253C22.6868 8.31837 19.5025 6.89129 15.9854 6.89129C12.4681 6.89129 9.28396 8.31837 6.97917 10.6253C4.67454 12.9324 3.24879 16.1199 3.24879 19.6404C3.24879 22.8255 4.4156 25.7376 6.34448 27.972C-0.262592 22.6336 -0.853364 14.8771 5.1865 8.83084C7.94998 6.06476 11.7682 4.35339 15.9854 4.35339Z" fill="#E3569F"/>
<path d="M23.1474 5.19038C25.9109 7.95682 27.6204 11.7791 27.6204 16C27.6204 20.2213 25.9107 24.0432 23.1474 26.8095C17.1072 32.8557 9.35749 32.2639 4.02466 25.6499C6.25689 27.5808 9.16633 28.7492 12.3485 28.7492C15.8657 28.7492 19.0499 27.322 21.3547 25.0151C23.6593 22.708 25.085 19.5207 25.085 16C25.085 12.4795 23.6593 9.29191 21.3547 6.98484C19.8781 5.5068 18.0404 4.38993 15.9856 3.77812C17.1379 3.43505 18.3585 3.25076 19.622 3.25076C20.0635 3.25076 20.4999 3.27313 20.9298 3.3171C21.6884 3.84889 22.43 4.47231 23.1474 5.19038ZM11.0406 3.31725C8.37194 3.58969 5.94712 4.68703 4.02466 6.35001C7.3938 2.17152 11.7277 0.397726 15.9856 1.18179C14.3039 1.49136 12.6343 2.19995 11.0406 3.31725Z" fill="#5C823D"/>
<path d="M26.784 23.1693C24.0205 25.9354 20.2023 27.6467 15.9852 27.6467C15.3851 27.6467 14.793 27.6119 14.2111 27.5445L14.2022 27.5405L14.1482 27.5147L14.1293 27.5058L14.0855 27.4847L14.0566 27.4706L14.023 27.4542L13.9841 27.4351L13.9607 27.4234L13.9119 27.399L13.8986 27.3922L13.8401 27.3627L13.8367 27.3609L13.775 27.3292L13.7684 27.3257L13.7135 27.297L13.6969 27.2884L13.6521 27.2647L13.6259 27.2506L13.591 27.2319L13.5549 27.2124L13.5301 27.1989L13.4844 27.1738L13.4694 27.1654L13.4142 27.1348L13.4089 27.1317L13.3485 27.0977L13.344 27.0951L13.2884 27.0633L13.2742 27.0552L13.2284 27.0288L13.2047 27.015L13.1687 26.9938L13.1356 26.9742L13.1093 26.9584L13.0666 26.9329L13.0499 26.923L12.998 26.8913L12.9909 26.887L12.9319 26.8508L12.9296 26.8493L12.8732 26.8143L12.8614 26.8069L12.8149 26.7774L12.7936 26.7639L12.7566 26.7402L12.7262 26.7208L12.6987 26.7028L12.6589 26.6769L12.6409 26.665L12.592 26.6329L12.5833 26.627L12.526 26.5886L12.5255 26.5883L12.4686 26.55L12.4592 26.5435L12.4118 26.511L12.3931 26.4981L12.355 26.4717L12.3273 26.4524L12.2986 26.4321L12.2619 26.4062L12.2423 26.3923L12.1968 26.3597L12.1864 26.352L12.132 26.3129L12.1304 26.3116L12.075 26.2709L12.0674 26.2655L12.0195 26.2299L12.0033 26.2177L11.886 26.1289L11.8757 26.1211L11.8549 26.105L11.8125 26.0723L11.8005 26.0628L11.7496 26.0228L11.7462 26.0203L11.6923 25.9775L11.6869 25.9733L11.6386 25.9345L11.6246 25.9232L11.5851 25.8912L11.5625 25.8728L11.5319 25.8476L11.501 25.8218L11.4788 25.8036L11.4396 25.7707L11.4261 25.7594L11.3786 25.7191L11.3737 25.7149L11.3213 25.6703L11.3179 25.6672L11.2692 25.6252L11.2574 25.6149L11.2175 25.5799L11.1974 25.5621L11.166 25.5342L11.1377 25.509L11.1147 25.4884L11.0784 25.4557L11.0637 25.4423L11.0194 25.4019L11.0129 25.396L10.9623 25.3493L10.9606 25.3476L10.9121 25.3022L10.9023 25.2931L10.8621 25.2551L10.8443 25.2383L10.8124 25.2077L10.7867 25.1829L10.7628 25.16L10.7294 25.1275L10.7135 25.1119L10.6724 25.0715L10.6645 25.0637L10.6158 25.0151L10.5588 24.9577L10.5381 24.9366L10.5304 24.929L10.475 24.872L10.4742 24.871L10.461 24.8575L10.4461 24.8419L10.418 24.8128L10.3902 24.7835L10.3848 24.7777L10.3624 24.7541L10.3347 24.7246L10.309 24.6972L10.3072 24.6952L10.2796 24.6656L10.2522 24.6358L10.234 24.6162L10.2249 24.606L10.1977 24.5761L10.1704 24.5461L10.1598 24.5343L10.1434 24.5162L10.1165 24.4859L10.0896 24.4558L10.0861 24.4519L10.0629 24.4255L10.0362 24.395L10.0132 24.3688L10.0097 24.3646L9.98317 24.334L9.95676 24.3033L9.94109 24.2851L9.93041 24.2725L9.90436 24.2417L9.87816 24.2108L9.85217 24.1798L9.82633 24.1489L9.80041 24.1176L9.79892 24.1159L9.77478 24.0865L9.74922 24.0552L9.72893 24.0303L9.72374 24.0237L9.69818 23.9922L9.67298 23.9606L9.65966 23.9441L9.64763 23.929L9.62264 23.8973L9.59758 23.8655L9.57259 23.8335L9.54774 23.8015L9.52325 23.7699L9.52311 23.7695L9.49841 23.7374L9.47391 23.7051L9.42522 23.6405L9.40087 23.608L9.38991 23.5932L9.37688 23.5755L9.35267 23.5428L9.32889 23.5102L9.32433 23.5041L9.30504 23.4774L9.28141 23.4446L9.25955 23.4143L9.2577 23.4116L9.2342 23.3786L9.21071 23.3456L9.19554 23.3239L9.18743 23.3124L9.16422 23.2791L9.14108 23.2457L9.13211 23.2329L9.11808 23.2124L9.09509 23.1789L9.07231 23.1454L9.0696 23.1413L9.04967 23.1118L9.02717 23.0781L9.00787 23.0493L9.00453 23.0442L8.98253 23.0106C10.9917 24.3367 13.3984 25.1089 15.9852 25.1089C19.5023 25.1089 22.6866 23.6817 24.9913 21.3748C26.4679 19.8966 27.5837 18.0572 28.1948 16.0001C28.5375 17.1537 28.7217 18.3756 28.7217 19.6404C28.7217 20.0924 28.6982 20.5385 28.6524 20.9784C28.1184 21.7261 27.4949 22.4576 26.784 23.1693ZM28.6554 11.0512C28.4425 8.95949 27.7241 7.01752 26.625 5.34927C27.0866 5.654 27.527 5.98781 27.9438 6.34819C30.5211 9.54337 31.435 12.897 30.8113 16.1308C30.5152 14.4039 29.8002 12.6876 28.6554 11.0512ZM7.15831 24.8358C6.45448 24.336 5.79494 23.7784 5.18629 23.1693C-0.853921 17.1231 -0.262651 9.36571 6.34477 4.02759C4.41568 6.26211 3.24859 9.17436 3.24859 12.3597C3.24859 14.2966 3.68032 16.1325 4.45221 17.7765C4.57039 18.7984 4.78946 19.7897 5.09873 20.7398L5.09858 20.7401C5.36934 21.5719 5.70979 22.3725 6.11239 23.1351L6.11268 23.1354C6.14771 23.2016 6.18288 23.2675 6.21883 23.333L6.22445 23.343C6.39297 23.6502 6.57146 23.9511 6.75991 24.2449L6.76838 24.2583C6.89411 24.4539 7.02411 24.6465 7.15831 24.8358ZM25.6267 4.02894L25.6255 4.02759L25.6722 4.06579L25.6267 4.02894Z" fill="#01A0C0"/>
</svg>
